<svg width="48" height="48" viewBox="0 0 48 48" fill="none" xmlns="http://www.w3.org/2000/svg">
  <rect width="48" height="48" rx="8" fill="#EA580C"/>
  <path d="M24 12C17.372 12 12 17.372 12 24C12 30.628 17.372 36 24 36C30.628 36 36 30.628 36 24C36 17.372 30.628 12 24 12Z" fill="white" fill-opacity="0.2"/>
  <path d="M28 20H20C18.895 20 18 20.895 18 22V28C18 29.105 18.895 30 20 30H28C29.105 30 30 29.105 30 28V22C30 20.895 29.105 20 28 20Z" stroke="white" stroke-width="2" stroke-linecap="round" stroke-linejoin="round"/>
  <path d="M22 24H26M24 22V26" stroke="white" stroke-width="2" stroke-linecap="round"/>
</svg>
